<svg xmlns="http://www.w3.org/2000/svg" version="1.1" xmlns:xlink="http://www.w3.org/1999/xlink" width="512" height="512" x="0" y="0" viewBox="0 0 64 64" style="enable-background:new 0 0 512 512" xml:space="preserve" class=""><g><linearGradient id="a" x1="10.408" x2="53.59" y1="31.998" y2="31.998" gradientUnits="userSpaceOnUse"><stop stop-opacity="1" stop-color="#09e0b5" offset="0"></stop><stop stop-opacity="1" stop-color="#16e351" offset="0.158"></stop><stop stop-opacity="1" stop-color="#14acc2" offset="1"></stop></linearGradient><path fill="url(#a)" d="M53.59 6.73v11.99c0 .79-.34 1.52-.92 1.94l-19.6 14.22a1.77 1.77 0 0 1-2.14 0l-19.6-14.22c-.58-.42-.92-1.15-.92-1.94V6.3c-.078-1.662 1.693-2.974 3.08-1.93l18.52 13.86L50.53 4.79c.57-.41 1.28-.47 1.89-.16.72.37 1.17 1.18 1.17 2.1zm-1.17 22.66c-.61-.31-1.32-.25-1.89.16L32.01 43 13.49 29.14c-1.384-1.062-3.158.26-3.08 1.92v12.42c0 .79.34 1.52.92 1.94l19.6 14.23c.66.465 1.48.465 2.14 0l19.6-14.23c.58-.42.92-1.14.92-1.94V31.49c0-.92-.45-1.72-1.17-2.1z" opacity="1" data-original="url(#a)"></path></g></svg>